<svg width="256" height="56" viewBox="0 0 256 56" fill="none" xmlns="http://www.w3.org/2000/svg">
<path d="M8.74289 26.156V33.3751H20.4512V40.0858H8.74289V47.915H21.985V54.8799H0V19.1911H21.985V26.156H8.74289Z" fill="#1A2D36"/>
<path d="M50.7709 54.8799L38.7047 39.1199V54.8799H29.9618V19.1911H38.7047V34.8494L50.6686 19.1911H60.9454L47.0386 36.6796L61.4567 54.8799H50.7709Z" fill="#1A2D36"/>
<path d="M80.8989 55.2358C78.2743 55.2358 75.9224 54.8121 73.8432 53.9648C71.764 53.1175 70.0938 51.8635 68.8327 50.2027C67.6056 48.542 66.958 46.5423 66.8898 44.2038H76.1951C76.3314 45.5256 76.7916 46.5423 77.5756 47.2541C78.3595 47.9319 79.3821 48.2709 80.6432 48.2709C81.9385 48.2709 82.961 47.9828 83.7109 47.4066C84.4608 46.7965 84.8357 45.9662 84.8357 44.9155C84.8357 44.0343 84.529 43.3056 83.9154 42.7294C83.336 42.1533 82.6031 41.6788 81.7169 41.306C80.8648 40.9331 79.6377 40.5095 78.0357 40.035C75.7179 39.3232 73.8262 38.6115 72.3605 37.8998C70.8948 37.188 69.6337 36.1374 68.577 34.7478C67.5204 33.3582 66.9921 31.5449 66.9921 29.308C66.9921 25.9866 68.2021 23.3938 70.6221 21.5297C73.0422 19.6317 76.1951 18.6827 80.0808 18.6827C84.0347 18.6827 87.2217 19.6317 89.6418 21.5297C92.0618 23.3938 93.3571 26.0035 93.5275 29.3589H84.0688C84.0006 28.2065 83.5746 27.3084 82.7906 26.6644C82.0066 25.9866 81.0011 25.6476 79.7741 25.6476C78.7174 25.6476 77.8653 25.9357 77.2177 26.5119C76.57 27.0542 76.2462 27.8506 76.2462 28.9013C76.2462 30.0537 76.7916 30.9518 77.8823 31.5958C78.973 32.2397 80.6773 32.9345 82.9951 33.6802C85.3129 34.4597 87.1876 35.2053 88.6192 35.9171C90.0849 36.6288 91.346 37.6625 92.4027 39.0182C93.4593 40.3739 93.9876 42.1194 93.9876 44.2546C93.9876 46.2881 93.4593 48.1353 92.4027 49.796C91.3801 51.4567 89.8804 52.7786 87.9034 53.7614C85.9265 54.7443 83.5916 55.2358 80.8989 55.2358Z" fill="#1A2D36"/>
<path d="M100.186 36.9847C100.186 33.4599 100.953 30.3248 102.487 27.5795C104.021 24.8003 106.151 22.6482 108.878 21.123C111.639 19.5639 114.758 18.7844 118.234 18.7844C122.495 18.7844 126.142 19.9029 129.176 22.1398C132.209 24.3767 134.237 27.427 135.26 31.2907H125.648C124.932 29.7995 123.909 28.6641 122.58 27.8845C121.285 27.105 119.802 26.7153 118.132 26.7153C115.439 26.7153 113.258 27.6473 111.588 29.5114C109.917 31.3755 109.082 33.8666 109.082 36.9847C109.082 40.1028 109.917 42.5939 111.588 44.458C113.258 46.322 115.439 47.2541 118.132 47.2541C119.802 47.2541 121.285 46.8643 122.58 46.0848C123.909 45.3053 124.932 44.1699 125.648 42.6786H135.26C134.237 46.5423 132.209 49.5927 129.176 51.8296C126.142 54.0326 122.495 55.1341 118.234 55.1341C114.758 55.1341 111.639 54.3715 108.878 52.8463C106.151 51.2873 104.021 49.1351 102.487 46.3898C100.953 43.6445 100.186 40.5095 100.186 36.9847Z" fill="#1A2D36"/>
<path d="M243.606 48.1692H255.059V54.8799H234.863V19.1911H243.606V48.1692Z" fill="#1A2D36"/>
<ellipse cx="167.333" cy="27.2117" rx="27.6178" ry="27.2117" fill="#67A8C4"/>
<path d="M194.948 27.2117C193.222 40.9046 188.907 46.0394 181.14 51.1742C175.098 46.8952 167.33 42.3364 167.33 27.2117C169.056 15.2304 174.235 6.67236 181.14 3.24915C183.728 4.10495 194.948 12.663 194.948 27.2117Z" fill="#ABCBE9" fill-opacity="0.5"/>
<circle cx="194.542" cy="27.2117" r="26.2117" stroke="#58889C" stroke-width="2"/>
</svg>
