<svg width="112" height="80" viewBox="0 0 112 80" fill="none" xmlns="http://www.w3.org/2000/svg">
<path d="M75.6172 29.0989V11.5741H75.6718V11.5195H75.9993V11.4649H76.3269V11.4103H76.6545V11.3558H76.982V11.3012H77.3096V11.2466H77.6372V11.192H77.9647V11.1374H78.2923V11.0828H78.6199V11.0282H78.9474V10.9736H79.275V10.919H79.6026V10.8644H79.9301V10.8098H80.2577V10.7552H80.5853V10.7006H80.9128V10.646H81.2404V10.5914H81.568V10.5368H81.8955V10.4822H82.2231V10.4277H82.5507V10.3731H82.8782V10.3185H83.2058V10.2639H83.5333V10.2093H83.8609V10.1547H84.1885V10.1001H84.516V10.0455H84.8436V9.9909H85.1712V9.9363H85.4987V9.88171H85.8263V9.82712H86.1539V9.77252H86.4814V9.71793H86.809V9.66333H87.1366V9.60874H87.4641V9.55414H87.7917V9.49955H88.1193V9.44496H88.4468V9.39036H88.829V9.33577H89.1566V9.28117H89.4841V9.22658H89.8117V9.17198H90.1393V9.11739H90.4668V9.0628H90.7944V9.0082H91.1219V8.95361H91.4495V8.89901H91.7771V8.84442H92.1046V26.3692H91.9955V26.4238H91.6679V26.4784H91.3403V26.5329H91.0128V26.5875H90.6852V26.6421H90.3576V26.6967H90.0301V26.7513H89.7025V26.8059H89.3749V26.8605H89.0474V26.9151H88.7198V26.9697H88.3922V27.0243H88.0647V27.0789H87.7371V27.1335H87.4095V27.1881H87.082V27.2427H86.7544V27.2973H86.4268V27.3519H86.0993V27.4065H85.7717V27.4611H85.4441V27.5156H85.1166V27.5702H84.789V27.6248H84.4615V27.6794H84.1339V27.734H83.8063V27.7886H83.4788V27.8432H83.1512V27.8978H82.8236V27.9524H82.4961V28.007H82.1685V28.0616H81.8409V28.1162H81.5134V28.1708H81.1312V28.2254H80.8036V28.28H80.4761V28.3346H80.1485V28.3892H79.8209V28.4437H79.4934V28.4983H79.1658V28.5529H78.8382V28.6075H78.5107V28.6621H78.1831V28.7167H77.8556V28.7713H77.528V28.8259H77.2004V28.8805H76.8729V28.9351H76.5453V28.9897H76.2177V29.0443H75.8902V29.0989" fill="url(#paint0_linear_103_72)"/>
<path d="M86.1523 9.0625V3.33011H86.2069V3.27551H86.5345V3.22092H86.8621V3.16632H87.1896V3.11173H87.5172V3.05714H87.8448V3.00254H88.1723V2.94795H88.4999V2.89335H88.8275V2.83876H89.155V2.78416H89.4826V2.72957H89.8102V2.67498H90.1377V2.62038H90.4653V2.56579H90.7929V2.51119H91.1204V2.4566H91.448V2.40201H91.5572V8.18899H91.3388V8.24359H91.0112V8.29818H90.6837V8.35278H90.3561V8.40737H90.0285V8.46196H89.701V8.51656H89.3734V8.57115H89.0458V8.62575H88.7183V8.68034H88.3907V8.73493H88.0631V8.78953H87.7356V8.84412H87.408V8.89872H87.0804V8.95331H86.7529V9.00791H86.4253V9.0625" fill="url(#paint1_linear_103_72)"/>
<path d="M97.0723 7.80688V1.0372H97.236V0.982606H97.5636V0.928012H97.8912V0.873417H98.2187V0.818823H98.5463V0.764229H98.8739V0.709635H99.2014V0.655041H99.529V0.600446H99.9112V0.545852H100.239V0.491258H100.566V0.436664H100.894V0.38207H101.221V0.327475H101.549V0.272881H101.877V0.218287H102.204V0.163692H102.532V0.109098H102.859V0.0545039H103.187V-9.01222e-05H103.46V6.76959H103.241V6.82419H102.914V6.87878H102.586V6.93338H102.259V6.98797H101.931V7.04257H101.604V7.09716H101.276V7.15175H100.948V7.20635H100.621V7.26094H100.293V7.31554H99.9658V7.37013H99.6382V7.42473H99.3106V7.47932H98.9831V7.53391H98.6555V7.58851H98.3279V7.6431H98.0004V7.6977H97.6728V7.75229H97.3452V7.80688" fill="url(#paint2_linear_103_72)"/>
<path d="M102.037 20.8005V11.0282H102.146V10.9736H102.474V10.919H102.801V10.8644H103.129V10.8098H103.457V10.7552H103.784V10.7006H104.112V10.646H104.439V10.5914H104.767V10.5368H105.094V10.4822H105.422V10.4276H105.75V10.373H106.077V10.3184H106.405V10.2639H106.787V10.2093H107.114V10.1547H107.442V10.1001H107.77V10.0455H108.097V9.99088H108.425V9.93629H108.752V9.88169H109.08V9.8271H109.407V9.7725H109.735V9.71791H110.062V9.66332H110.39V9.60872H110.718V9.55413H111.045V9.49953H111.209V19.3265H110.936V19.3811H110.608V19.4357H110.281V19.4903H109.899V19.5449H109.571V19.5995H109.244V19.6541H108.916V19.7087H108.588V19.7632H108.261V19.8178H107.933V19.8724H107.606V19.927H107.278V19.9816H106.951V20.0362H106.623V20.0908H106.295V20.1454H105.968V20.2H105.64V20.2546H105.313V20.3092H104.985V20.3638H104.658V20.4184H104.33V20.473H104.003V20.5276H103.675V20.5822H103.347V20.6368H103.02V20.6913H102.692V20.7459H102.365V20.8005" fill="url(#paint3_linear_103_72)"/>
<path d="M94.1758 36.2505V22.8203H94.5033V22.7657H94.8309V22.7111H95.1585V22.6565H95.486V22.6019H95.8136V22.5473H96.1412V22.4927H96.4687V22.4382H96.7963V22.3836H97.1239V22.329H97.4514V22.2744H97.779V22.2198H98.1066V22.1652H98.4341V22.1106H98.7617V22.056H99.0893V22.0014H99.4168V21.9468H99.7444V21.8922H100.072V21.8376H100.4V21.783H100.727V21.7284H101.055V21.6738H101.382V21.6192H101.71V21.5646H102.092V21.51H102.42V21.4555H102.747V21.4009H103.075V21.3463H103.402V21.2917H103.73V21.2371H104.057V21.1825H104.385V21.1279H104.712V21.0733H105.04V21.0187H105.368V20.9641H105.695V20.9095H106.023V20.8549H106.35V20.8003H106.678V20.7457H106.732V34.1759H106.623V34.2305H106.296V34.2851H105.968V34.3397H105.641V34.3943H105.313V34.4489H104.985V34.5035H104.658V34.5581H104.33V34.6127H104.003V34.6673H103.621V34.7219H103.293V34.7764H102.965V34.831H102.638V34.8856H102.31V34.9402H101.983V34.9948H101.655V35.0494H101.328V35.104H101V35.1586H100.672V35.2132H100.345V35.2678H100.017V35.3224H99.6898V35.377H99.3622V35.4316H99.0347V35.4862H98.7071V35.5408H98.3795V35.5954H98.052V35.65H97.7244V35.7045H97.3968V35.7591H97.0693V35.8137H96.7417V35.8683H96.4141V35.9229H96.0866V35.9775H95.759V36.0321H95.4314V36.0867H95.1039V36.1413H94.7763V36.1959H94.4488V36.2505" fill="url(#paint4_linear_103_72)"/>
<path d="M86.5898 33.521V28.1162H86.699V28.0616H87.0266V28.007H87.3542V27.9524H87.6817V27.8978H88.0093V27.8432H88.3915V27.7886H88.719V27.734H89.0466V27.6794H89.3741V27.6248H89.7017V27.5702H90.0293V27.5156H90.3568V27.461H90.6844V27.4064H91.012V27.3518H91.3395V27.2973H91.6671V32.6475H91.6125V32.7021H91.2849V32.7567H90.9574V32.8113H90.6298V32.8659H90.3023V32.9205H89.9747V32.9751H89.6471V33.0296H89.3196V33.0842H88.992V33.1388H88.6644V33.1934H88.3369V33.248H88.0093V33.3026H87.6817V33.3572H87.3542V33.4118H87.0266V33.4664H86.699V33.521" fill="url(#paint5_linear_103_72)"/>
<path d="M71.957 15.1772V2.72976H72.0116V2.67517H72.3392V2.62057H72.6668V2.56598H72.9943V2.51139H73.3219V2.45679H73.6495V2.4022H73.977V2.3476H74.3046V2.29301H74.6321V2.23841H74.9597V2.18382H75.2873V2.12923H75.6148V2.07463H75.9424V2.02004H76.27V1.96544H76.5975V1.91085H76.9251V1.85625H77.2527V1.80166H77.5802V1.74707H77.9078V1.69247H78.2354V1.63788H78.5629V1.58328H78.8905V1.52869H79.2181V1.4741H79.5456V1.4195H79.8732V1.36491H80.2008V1.31031H80.5283V1.25572H80.8559V1.20112H81.1835V1.14653H81.511V1.09194H81.8932V1.03734H82.2207V0.982747H82.5483V0.928153H82.8759V0.873559H83.2034V0.818965H83.531V0.76437H83.6948V13.2664H83.4218V13.321H83.0943V13.3756H82.7667V13.4302H82.4391V13.4848H82.1116V13.5394H81.784V13.594H81.4564V13.6486H81.1289V13.7032H80.8013V13.7578H80.4737V13.8124H80.1462V13.867H79.8186V13.9216H79.491V13.9762H79.1635V14.0308H78.8359V14.0854H78.5083V14.14H78.1808V14.1946H77.8532V14.2491H77.5256V14.3037H77.1981V14.3583H76.8705V14.4129H76.5429V14.4675H76.2154V14.5221H75.8878V14.5767H75.5603V14.6313H75.2327V14.6859H74.9051V14.7405H74.5776V14.7951H74.25V14.8497H73.9224V14.9043H73.5949V14.9589H73.2673V15.0135H72.9397V15.0681H72.6122V15.1227H72.2846V15.1772" fill="url(#paint6_linear_103_72)"/>
<path d="M73.3184 37.834V28.6076H73.4275V28.553H73.7551V28.4984H74.0827V28.4438H74.4102V28.3892H74.7378V28.3346H75.0654V28.28H75.3929V28.2254H75.7205V28.1708H76.0481V28.1162H76.3756V28.0616H76.7032V28.007H77.0308V27.9524H77.3583V27.8978H77.6859V27.8432H78.0135V27.7886H78.341V27.7341H78.6686V27.6795H78.9962V27.6249H79.3237V27.5703H79.6513V27.5157H79.9789V27.4611H80.3064V27.4065H80.634V27.3519H80.9616V27.2973H81.2891V27.2427H81.6167V27.1881H81.9988V36.4145H81.6713V36.4691H81.3437V36.5237H80.9616V36.5783H80.634V36.6329H80.3064V36.6875H79.9789V36.7421H79.6513V36.7967H79.3237V36.8513H78.9962V36.9059H78.6686V36.9605H78.341V37.0151H78.0135V37.0697H77.6859V37.1243H77.3583V37.1789H77.0308V37.2334H76.7032V37.288H76.3756V37.3426H76.0481V37.3972H75.7205V37.4518H75.3929V37.5064H75.0654V37.561H74.7378V37.6156H74.4102V37.6702H74.0827V37.7248H73.7551V37.7794H73.4275V37.834" fill="url(#paint7_linear_103_72)"/>
<path d="M89.375 24.1306V11.6285H89.5934V11.5739H89.9209V11.5193H90.2485V11.4648H90.5761V11.4102H90.9036V11.3556H91.2312V11.301H91.5588V11.2464H91.8863V11.1918H92.2139V11.1372H92.5415V11.0826H92.869V11.028H93.1966V10.9734H93.5242V10.9188H93.8517V10.8642H94.1793V10.8096H94.5069V10.755H94.8344V10.7004H95.162V10.6458H95.4896V10.5912H95.8171V10.5367H96.1447V10.4821H96.4722V10.4275H96.7998V10.3729H97.1274V10.3183H97.4549V10.2637H97.8371V10.2091H98.1647V10.1545H98.4922V10.0999H98.8198V10.0453H99.1474V9.99071H99.4749V9.93612H99.8025V9.88152H100.13V9.82693H100.458V9.77233H100.785V9.71774H101.058V22.2198H100.731V22.2744H100.403V22.329H100.075V22.3836H99.7479V22.4382H99.4203V22.4928H99.0382V22.5474H98.7106V22.602H98.383V22.6566H98.0555V22.7112H97.7279V22.7658H97.4004V22.8204H97.0728V22.8749H96.7452V22.9295H96.4177V22.9841H96.0901V23.0387H95.7625V23.0933H95.435V23.1479H95.1074V23.2025H94.7798V23.2571H94.4523V23.3117H94.1247V23.3663H93.7971V23.4209H93.4696V23.4755H93.142V23.5301H92.8144V23.5847H92.4869V23.6393H92.1593V23.6939H91.8317V23.7485H91.5042V23.803H91.1766V23.8576H90.849V23.9122H90.5215V23.9668H90.1939V24.0214H89.8663V24.076H89.5388V24.1306" fill="url(#paint8_linear_103_72)"/>
<path fill-rule="evenodd" clip-rule="evenodd" d="M1.25223 42.858L0.690077 49.3409C8.35524 49.8445 14.0689 49.3043 16.1952 42.8857C18.0387 37.3212 15.9368 33.6917 11.0417 31.9166C9.23213 31.2601 8.17825 31.2712 7.53485 29.7692C7.36485 26.9569 13.5611 27.9669 15.2798 27.8143L16.0865 20.7815C9.14304 20.9562 -0.875244 21.3429 0.0611779 32.4012C0.422225 36.667 3.34899 37.751 6.89337 39.0754C10.3255 40.3575 9.41661 42.1922 8.21963 42.7488C6.17191 43.7013 3.34942 42.7116 1.25223 42.858Z" fill="#2B3B94"/>
<path d="M6.55849 75.1989L5.36732 75.4022V75.0302C5.36732 74.8566 5.35209 74.7486 5.32163 74.7063C5.29116 74.6639 5.24039 74.6488 5.1693 74.661C5.09213 74.6741 5.03323 74.7162 4.99261 74.7872C4.95402 74.8579 4.93473 74.9583 4.93473 75.0885C4.93473 75.2559 4.95707 75.3781 5.00175 75.4552C5.0444 75.5327 5.16524 75.6144 5.36428 75.7003C5.93498 75.948 6.29446 76.1698 6.44272 76.3657C6.59098 76.5615 6.66511 76.9053 6.66511 77.3972C6.66511 77.7547 6.62348 78.0253 6.54021 78.209C6.45897 78.3923 6.30055 78.5619 6.06496 78.7179C5.82937 78.8717 5.55519 78.9753 5.24242 79.0287C4.89918 79.0873 4.60571 79.0712 4.36199 78.9805C4.12031 78.8895 3.96189 78.7481 3.88675 78.5563C3.8116 78.3646 3.77403 78.0806 3.77403 77.7045V77.3759L4.96519 77.1726V77.7833C4.96519 77.9714 4.98144 78.0895 5.01393 78.1377C5.04846 78.1856 5.10837 78.2022 5.19368 78.1876C5.27898 78.1731 5.34194 78.1283 5.38256 78.0531C5.42521 77.9776 5.44653 77.8727 5.44653 77.7384C5.44653 77.4429 5.40693 77.2564 5.32772 77.179C5.24648 77.1019 5.04643 76.9842 4.72757 76.8257C4.40871 76.6652 4.19748 76.5452 4.0939 76.4657C3.99033 76.3863 3.90401 76.2667 3.83496 76.1069C3.76793 75.9468 3.73442 75.7335 3.73442 75.4669C3.73442 75.0825 3.78215 74.7933 3.87761 74.5993C3.97509 74.4049 4.13148 74.2398 4.34676 74.1038C4.56204 73.9658 4.82201 73.8708 5.12665 73.8189C5.45973 73.762 5.74305 73.7684 5.97661 73.8381C6.21221 73.9075 6.36758 74.0194 6.44272 74.174C6.5199 74.3262 6.55849 74.6017 6.55849 75.0005V75.1989Z" fill="#2B3B94"/>
<path d="M8.35285 73.3738V78.3926L7.07029 78.6114V73.5926L8.35285 73.3738Z" fill="#2B3B94"/>
<path d="M11.0825 72.908L11.8167 77.8016L10.5036 78.0256L10.4397 77.1344L9.97965 77.2129L9.90349 78.128L8.57524 78.3546L9.22718 73.2246L11.0825 72.908ZM10.4031 76.251C10.3381 75.6938 10.2731 75.0032 10.2081 74.1794C10.0782 75.1605 9.99692 75.876 9.96442 76.3259L10.4031 76.251Z" fill="#2B3B94"/>
<path d="M12.036 72.7453L13.3277 72.5249C13.677 72.4653 13.9451 72.4475 14.132 72.4714C14.3209 72.495 14.462 72.5515 14.5554 72.641C14.6509 72.7301 14.7149 72.8473 14.7474 72.9926C14.7819 73.1355 14.7991 73.364 14.7991 73.6782V74.1152C14.7991 74.4356 14.7667 74.6746 14.7017 74.8325C14.6367 74.9903 14.5168 75.1234 14.3422 75.2317C14.1695 75.3397 13.9431 75.4176 13.6628 75.4654L13.3186 75.5241V77.5453L12.036 77.7642V72.7453ZM13.3186 73.3852V74.6624C13.3551 74.6582 13.3866 74.6539 13.413 74.6494C13.5308 74.6293 13.612 74.5865 13.6567 74.521C13.7034 74.4531 13.7268 74.3261 13.7268 74.1401V73.7278C13.7268 73.5563 13.7004 73.4492 13.6476 73.4065C13.5948 73.3639 13.4851 73.3568 13.3186 73.3852Z" fill="#2B3B94"/>
<path d="M19.3262 71.5015L18.592 73.8928L19.3962 76.5083L18.071 76.7344L17.5531 74.6714V76.8228L16.2706 77.0416V72.0228L17.5531 71.804V73.7538L18.1228 71.7068L19.3262 71.5015Z" fill="#2B3B94"/>
<path d="M19.6217 71.451L21.7603 71.0861V72.0905L20.9042 72.2366V73.1883L21.7055 73.0515V74.0063L20.9042 74.143V75.2466L21.8456 75.086V76.0904L19.6217 76.4698V71.451Z" fill="#2B3B94"/>
<path d="M22.2173 71.0082L23.1251 70.8533C23.7303 70.75 24.1396 70.7039 24.3528 70.7151C24.5681 70.7259 24.7428 70.818 24.8768 70.9915C25.0129 71.1625 25.0809 71.4619 25.0809 71.8897C25.0809 72.2803 25.0332 72.5509 24.9377 72.7015C24.8423 72.8522 24.6544 72.9648 24.3742 73.0395C24.628 73.0602 24.7986 73.1169 24.886 73.2095C24.9733 73.302 25.0271 73.392 25.0474 73.4795C25.0698 73.5646 25.0809 73.8096 25.0809 74.2147V75.5384L23.8898 75.7416V74.0738C23.8898 73.8052 23.8684 73.6424 23.8258 73.5856C23.7852 73.5285 23.6765 73.515 23.4998 73.5452V75.8081L22.2173 76.027V71.0082ZM23.4998 71.648V72.764C23.644 72.7394 23.7446 72.7026 23.8014 72.6536C23.8603 72.6022 23.8898 72.466 23.8898 72.2449V71.969C23.8898 71.8098 23.8613 71.7103 23.8045 71.6704C23.7496 71.6302 23.6481 71.6227 23.4998 71.648Z" fill="#2B3B94"/>
<path d="M27.1495 70.1666V73.5207C27.1495 74.0229 27.1444 74.3472 27.1342 74.4936C27.1241 74.6379 27.0774 74.7751 26.9941 74.905C26.9129 75.0346 26.8012 75.1343 26.659 75.204C26.5189 75.2713 26.3066 75.3292 26.0223 75.3777L25.3795 75.4874V74.6101C25.4567 74.6032 25.5125 74.5967 25.547 74.5908C25.6384 74.5752 25.7105 74.5402 25.7633 74.4857C25.8161 74.4313 25.8466 74.3703 25.8547 74.3027C25.8629 74.2352 25.8669 74.1064 25.8669 73.9163V70.3854L27.1495 70.1666Z" fill="#2B3B94"/>
<path d="M29.8608 69.704L30.595 74.5975L29.282 74.8215L29.218 73.9304L28.758 74.0089L28.6818 74.924L27.3536 75.1506L28.0055 70.0205L29.8608 69.704ZM29.1815 73.0469C29.1165 72.4897 29.0515 71.7992 28.9865 70.9753C28.8565 71.9564 28.7753 72.6719 28.7428 73.1218L29.1815 73.0469Z" fill="#2B3B94"/>
<path d="M33.3886 71.6316V72.4965L31.7709 72.7725V71.9076L33.3886 71.6316Z" fill="#2B3B94"/>
<path d="M37.5775 69.9063L36.3863 70.1095V69.7375C36.3863 69.5639 36.3711 69.456 36.3406 69.4136C36.3102 69.3713 36.2594 69.3562 36.1883 69.3683C36.1111 69.3815 36.0522 69.4236 36.0116 69.4946C35.973 69.5652 35.9537 69.6656 35.9537 69.7958C35.9537 69.9632 35.9761 70.0855 36.0207 70.1626C36.0634 70.2401 36.1842 70.3217 36.3833 70.4076C36.954 70.6554 37.3135 70.8772 37.4617 71.073C37.61 71.2688 37.6841 71.6127 37.6841 72.1045C37.6841 72.4621 37.6425 72.7327 37.5592 72.9163C37.478 73.0997 37.3195 73.2693 37.084 73.4252C36.8484 73.5791 36.5742 73.6827 36.2614 73.7361C35.9182 73.7946 35.6247 73.7786 35.381 73.6879C35.1393 73.5969 34.9809 73.4555 34.9057 73.2637C34.8306 73.0719 34.793 72.788 34.793 72.4118V72.0833L35.9842 71.88V72.4907C35.9842 72.6788 36.0004 72.7969 36.0329 72.8451C36.0675 72.8929 36.1274 72.9096 36.2127 72.895C36.298 72.8805 36.3609 72.8356 36.4016 72.7605C36.4442 72.685 36.4655 72.5801 36.4655 72.4458C36.4655 72.1502 36.4259 71.9638 36.3467 71.8864C36.2655 71.8093 36.0654 71.6915 35.7466 71.5331C35.4277 71.3725 35.2165 71.2525 35.1129 71.1731C35.0093 71.0936 34.923 70.974 34.854 70.8143C34.7869 70.6542 34.7534 70.4408 34.7534 70.1742C34.7534 69.7898 34.8011 69.5006 34.8966 69.3066C34.9941 69.1123 35.1505 68.9471 35.3658 68.8112C35.581 68.6732 35.841 68.5782 36.1456 68.5262C36.4787 68.4694 36.762 68.4758 36.9956 68.5455C37.2312 68.6148 37.3866 68.7268 37.4617 68.8814C37.5389 69.0335 37.5775 69.309 37.5775 69.7079V69.9063Z" fill="#2B3B94"/>
<path d="M40.3041 67.9221L41.0383 72.8156L39.7252 73.0397L39.6613 72.1485L39.2012 72.227L39.1251 73.1421L37.7968 73.3687L38.4488 68.2386L40.3041 67.9221ZM39.6247 71.265C39.5597 70.7078 39.4947 70.0173 39.4297 69.1934C39.2997 70.1745 39.2185 70.89 39.186 71.3399L39.6247 71.265Z" fill="#2B3B94"/>
<path d="M44.1213 67.2708V72.2896L42.9971 72.4814L42.33 70.3137V72.5952L41.2576 72.7782V67.7594L42.33 67.5764L43.0489 69.7136V67.4537L44.1213 67.2708Z" fill="#2B3B94"/>
<path d="M47.2226 66.7416V67.746L46.4609 67.8759V71.8904L45.1784 72.1092V68.0948L44.4198 68.2242V67.2198L47.2226 66.7416Z" fill="#2B3B94"/>
<path d="M50.4305 66.1943V69.5484C50.4305 69.9287 50.4183 70.1984 50.3939 70.3575C50.3695 70.5146 50.2974 70.685 50.1776 70.8687C50.0578 71.0504 49.8994 71.2004 49.7024 71.3187C49.5074 71.4346 49.2769 71.5153 49.0108 71.5607C48.7163 71.6109 48.4564 71.6057 48.2309 71.545C48.0055 71.4842 47.8369 71.3838 47.7252 71.2438C47.6135 71.1037 47.5475 70.9476 47.5272 70.7754C47.5069 70.6011 47.4967 70.2308 47.4967 69.6646V66.6948L48.7793 66.476V70.2393C48.7793 70.4584 48.7905 70.597 48.8128 70.6552C48.8372 70.711 48.8849 70.7328 48.956 70.7207C49.0372 70.7068 49.089 70.6649 49.1114 70.595C49.1357 70.5226 49.1479 70.3614 49.1479 70.1113V66.4131L50.4305 66.1943Z" fill="#2B3B94"/>
<path d="M53.7907 65.6209V70.6397L52.6666 70.8315L51.9994 68.6638V70.9454L50.927 71.1283V66.1095L51.9994 65.9266L52.7184 68.0637V65.8039L53.7907 65.6209Z" fill="#2B3B94"/>
<path d="M56.8829 67.6229V68.4877L55.2652 68.7638V67.8989L56.8829 67.6229Z" fill="#2B3B94"/>
<path d="M62.3116 64.167V69.1858L61.1906 69.3771V65.9889L60.7427 69.4535L59.9476 69.5892L59.4754 66.359V69.6698L58.3543 69.8611V64.8422L60.0146 64.559C60.0634 64.8524 60.1152 65.199 60.17 65.5988L60.3467 66.8459L60.6391 64.4524L62.3116 64.167Z" fill="#2B3B94"/>
<path d="M65.0413 63.7013L65.7755 68.5948L64.4624 68.8188L64.3985 67.9277L63.9384 68.0062L63.8623 68.9213L62.534 69.1479L63.186 64.0178L65.0413 63.7013ZM64.3619 67.0442C64.2969 66.487 64.2319 65.7965 64.1669 64.9726C64.037 65.9537 63.9557 66.6692 63.9232 67.1191L64.3619 67.0442Z" fill="#2B3B94"/>
<path d="M68.8585 63.05V68.0688L67.7343 68.2606L67.0672 66.0929V68.3744L65.9948 68.5574V63.5386L67.0672 63.3556L67.7861 65.4928V63.2329L68.8585 63.05Z" fill="#2B3B94"/>
<path d="M69.3764 62.9616L70.336 62.7979C70.9555 62.6922 71.3738 62.6497 71.5911 62.6705C71.8105 62.6909 71.977 62.7576 72.0908 62.8704C72.2045 62.9833 72.2756 63.1189 72.304 63.2773C72.3324 63.4337 72.3467 63.7495 72.3467 64.2249V65.9825C72.3467 66.4331 72.3253 66.7384 72.2827 66.8986C72.2421 67.0564 72.17 67.1875 72.0664 67.292C71.9628 67.3944 71.8349 67.4762 71.6825 67.5373C71.5302 67.5964 71.3007 67.6521 70.994 67.7044L69.3764 67.9804V62.9616ZM70.6589 63.6014V66.9029C70.8438 66.8713 70.9575 66.8147 71.0001 66.7331C71.0428 66.6493 71.0641 66.4401 71.0641 66.1053V64.1554C71.0641 63.9281 71.057 63.7836 71.0428 63.7219C71.0286 63.6603 70.9961 63.6194 70.9453 63.5991C70.8945 63.5767 70.7991 63.5775 70.6589 63.6014Z" fill="#2B3B94"/>
<path d="M74.1075 62.1543V67.1732L72.825 67.392V62.3732L74.1075 62.1543Z" fill="#2B3B94"/>
<path d="M74.6224 62.0665L75.5302 61.9116C76.1354 61.8083 76.5447 61.7623 76.7579 61.7734C76.9732 61.7842 77.1479 61.8763 77.2819 62.0498C77.418 62.2208 77.486 62.5203 77.486 62.9481C77.486 63.3386 77.4383 63.6093 77.3428 63.7599C77.2474 63.9105 77.0595 64.0231 76.7793 64.0978C77.0331 64.1186 77.2037 64.1752 77.2911 64.2678C77.3784 64.3604 77.4322 64.4504 77.4525 64.5378C77.4749 64.6229 77.486 64.868 77.486 65.273V66.5967L76.2949 66.7999V65.1322C76.2949 64.8635 76.2735 64.7008 76.2309 64.644C76.1903 64.5868 76.0816 64.5734 75.9049 64.6035V66.8665L74.6224 67.0853V62.0665ZM75.9049 62.7063V63.8223C76.0491 63.7977 76.1497 63.7609 76.2065 63.712C76.2654 63.6606 76.2949 63.5243 76.2949 63.3032V63.0273C76.2949 62.8682 76.2664 62.7687 76.2096 62.7288C76.1547 62.6885 76.0532 62.681 75.9049 62.7063Z" fill="#2B3B94"/>
<path d="M79.2682 61.2738V66.2926L77.9856 66.5114V61.4926L79.2682 61.2738Z" fill="#2B3B94"/>
<path d="M82.3573 63.2763V64.1412L80.7396 64.4172V63.5523L82.3573 63.2763Z" fill="#2B3B94"/>
<path d="M86.8843 59.9743L86.1501 62.3656L86.9544 64.9811L85.6292 65.2073L85.1113 63.1443V65.2956L83.8288 65.5145V60.4956L85.1113 60.2768V62.2267L85.681 60.1796L86.8843 59.9743Z" fill="#2B3B94"/>
<path d="M87.1799 59.9239L88.0877 59.769C88.6929 59.6657 89.1022 59.6196 89.3154 59.6308C89.5307 59.6416 89.7054 59.7337 89.8394 59.9072C89.9755 60.0782 90.0435 60.3776 90.0435 60.8054C90.0435 61.196 89.9958 61.4666 89.9003 61.6172C89.8049 61.7679 89.617 61.8805 89.3367 61.9552C89.5906 61.9759 89.7612 62.0326 89.8485 62.1252C89.9359 62.2177 89.9897 62.3077 90.01 62.3952C90.0323 62.4803 90.0435 62.7253 90.0435 63.1304V64.4541L88.8524 64.6573V62.9895C88.8524 62.7209 88.831 62.5581 88.7884 62.5014C88.7478 62.4442 88.6391 62.4307 88.4624 62.4609V64.7238L87.1799 64.9427V59.9239ZM88.4624 60.5637V61.6797C88.6066 61.6551 88.7071 61.6183 88.764 61.5693C88.8229 61.5179 88.8524 61.3817 88.8524 61.1606V60.8847C88.8524 60.7255 88.8239 60.626 88.7671 60.5861C88.7122 60.5459 88.6107 60.5384 88.4624 60.5637Z" fill="#2B3B94"/>
<path d="M90.5431 59.35L92.6817 58.9851V59.9895L91.8257 60.1355V61.0872L92.6269 60.9505V61.9053L91.8257 62.042V63.1456L92.7671 62.985V63.9894L90.5431 64.3688V59.35Z" fill="#2B3B94"/>
<path d="M95.3535 58.5292L96.0877 63.4228L94.7747 63.6468L94.7107 62.7556L94.2507 62.8341L94.1745 63.7492L92.8463 63.9758L93.4982 58.8458L95.3535 58.5292ZM94.6741 61.8722C94.6091 61.315 94.5441 60.6244 94.4791 59.8006C94.3492 60.7817 94.2679 61.4972 94.2354 61.947L94.6741 61.8722Z" fill="#2B3B94"/>
<path d="M98.5431 57.985V58.9894L97.7815 59.1193V63.1338L96.499 63.3526V59.3382L95.7404 59.4676V58.4632L98.5431 57.985Z" fill="#2B3B94"/>
<path d="M100.118 57.7163V62.7351L98.8356 62.9539V57.9351L100.118 57.7163Z" fill="#2B3B94"/>
<path d="M100.633 57.6284L102.805 57.2578V58.2622L101.916 58.414V59.3656L102.708 59.2305V60.1853L101.916 60.3204V62.4284L100.633 62.6472V57.6284Z" fill="#2B3B94"/>
<path d="M18.9069 51.5534L23.1012 50.8243C24.4261 50.5941 25.428 50.525 26.1071 50.617C26.7929 50.708 27.3454 51.0389 27.7649 51.6099C28.1843 52.1742 28.394 53.168 28.394 54.5914C28.394 55.5539 28.2442 56.2509 27.9446 56.6826C27.6517 57.1131 27.0691 57.5058 26.197 57.8607C27.169 57.9155 27.8281 58.1737 28.1743 58.6354C28.5205 59.0904 28.6936 59.8533 28.6936 60.9243V62.4493C28.6936 63.5609 28.5671 64.4065 28.3141 64.9859C28.0678 65.5642 27.6717 65.9991 27.1257 66.2905C26.5798 66.582 25.4613 66.8747 23.7703 67.1686L18.9069 68.014V51.5534ZM23.1112 53.6389V57.2991C23.291 57.261 23.4308 57.2334 23.5306 57.216C23.9434 57.1442 24.2064 56.9969 24.3196 56.7738C24.4327 56.5441 24.4893 55.9411 24.4893 54.9651C24.4893 54.45 24.4427 54.0988 24.3495 53.9117C24.2563 53.7178 24.1331 53.607 23.98 53.5794C23.8336 53.5506 23.544 53.5705 23.1112 53.6389ZM23.1112 59.8612V64.4669C23.7037 64.3436 24.0799 64.1833 24.2397 63.9861C24.4061 63.7877 24.4893 63.3564 24.4893 62.6921V61.1569C24.4893 60.452 24.4161 60.0377 24.2696 59.914C24.1232 59.7903 23.737 59.7727 23.1112 59.8612Z" fill="#2B3B94"/>
<path d="M34.4158 48.8576V65.3182L30.2115 66.049V49.5884L34.4158 48.8576Z" fill="#2B3B94"/>
<path d="M45.0113 51.9978L41.1067 52.6765V51.4564C41.1067 50.8871 41.0567 50.5331 40.9569 50.3946C40.857 50.2561 40.6906 50.207 40.4576 50.2475C40.2046 50.2915 40.0115 50.4301 39.8783 50.6634C39.7519 50.8955 39.6886 51.2251 39.6886 51.6521C39.6886 52.2011 39.7618 52.6019 39.9083 52.8543C40.0481 53.1079 40.4442 53.3746 41.0967 53.6543C42.9675 54.461 44.1459 55.1848 44.6319 55.8256C45.1179 56.4664 45.3609 57.5933 45.3609 59.2065C45.3609 60.3791 45.2244 61.2671 44.9514 61.8703C44.6851 62.4724 44.1658 63.0303 43.3936 63.5442C42.6213 64.0512 41.7225 64.3938 40.6972 64.572C39.5721 64.7676 38.6101 64.7179 37.8112 64.423C37.0189 64.1269 36.4996 63.6648 36.2533 63.0365C36.007 62.4083 35.8838 61.4774 35.8838 60.2438V59.1661L39.7885 58.4874V60.4903C39.7885 61.1071 39.8417 61.4944 39.9482 61.6521C40.0614 61.8086 40.2578 61.8626 40.5374 61.814C40.8171 61.7654 41.0234 61.6177 41.1566 61.3709C41.2964 61.1229 41.3663 60.7786 41.3663 60.338C41.3663 59.3688 41.2365 58.7576 40.9768 58.5045C40.7105 58.2525 40.0548 57.8683 39.0095 57.3519C37.9643 56.8287 37.2719 56.4373 36.9324 56.1777C36.5928 55.9182 36.3099 55.5268 36.0835 55.0035C35.8638 54.4791 35.754 53.7798 35.754 52.9054C35.754 51.6447 35.9104 50.6956 36.2233 50.0583C36.5429 49.4199 37.0555 48.8766 37.7612 48.4286C38.4669 47.9738 39.3191 47.6596 40.3177 47.4861C41.4096 47.2963 42.3383 47.3144 43.1039 47.5406C43.8762 47.7656 44.3855 48.1312 44.6319 48.6374C44.8848 49.1357 45.0113 50.0389 45.0113 51.3471V51.9978Z" fill="#2B3B94"/>
<path d="M53.9492 45.4623L56.3559 61.5045L52.0517 62.2527L51.842 59.3305L50.3341 59.5926L50.0844 62.5946L45.7304 63.3515L47.8675 46.5194L53.9492 45.4623ZM51.7222 56.4334C51.5092 54.6064 51.2961 52.3423 51.0831 49.641C50.657 52.8601 50.3907 55.2075 50.2842 56.6833L51.7222 56.4334Z" fill="#2B3B94"/>
<path d="M61.8983 52.3769V55.2136L56.5955 56.1353V53.2987L61.8983 52.3769Z" fill="#2B3B94"/>
<path d="M72.7735 42.1902V58.6508L68.5692 59.3816V52.4679L67.3109 52.6867V59.6003L63.1067 60.3311V43.8705L67.3109 43.1397V49.0265L68.5692 48.8078V42.921L72.7735 42.1902Z" fill="#2B3B94"/>
<path d="M74.4712 41.8951L81.4816 40.6766V43.9707L78.6754 44.4585V47.5798L81.3019 47.1233V50.2547L78.6754 50.7113V54.3308L81.7612 53.7944V57.0885L74.4712 58.3557V41.8951Z" fill="#2B3B94"/>
<path d="M82.9796 40.4162L87.1739 39.6871C88.4987 39.4568 89.5007 39.3877 90.1797 39.4798C90.8655 39.5707 91.4181 39.9017 91.8375 40.4727C92.2569 41.0369 92.4666 42.0308 92.4666 43.4542C92.4666 44.4166 92.3168 45.1137 92.0172 45.5454C91.7243 45.9759 91.1418 46.3686 90.2696 46.7235C91.2416 46.7782 91.9007 47.0365 92.2469 47.4982C92.5931 47.9532 92.7662 48.7161 92.7662 49.787V51.3121C92.7662 52.4237 92.6397 53.2692 92.3867 53.8487C92.1404 54.427 91.7443 54.8618 91.1984 55.1533C90.6524 55.4448 89.534 55.7375 87.8429 56.0314L82.9796 56.8768V40.4162ZM87.1838 42.5017V46.1618C87.3636 46.1238 87.5034 46.0961 87.6033 46.0788C88.016 46.007 88.279 45.8596 88.3922 45.6366C88.5054 45.4068 88.562 44.8039 88.562 43.8279C88.562 43.3127 88.5154 42.9616 88.4221 42.7745C88.3289 42.5805 88.2058 42.4698 88.0527 42.4422C87.9062 42.4134 87.6166 42.4332 87.1838 42.5017ZM87.1838 48.724V53.3297C87.7764 53.2063 88.1525 53.0461 88.3123 52.8488C88.4787 52.6505 88.562 52.2191 88.562 51.5549V50.0196C88.562 49.3147 88.4887 48.9004 88.3423 48.7768C88.1958 48.6531 87.8096 48.6355 87.1838 48.724Z" fill="#2B3B94"/>
<path d="M101.544 37.1892L103.951 53.2315L99.6468 53.9796L99.4371 51.0574L97.9292 51.3195L97.6795 54.3216L93.3255 55.0784L95.4625 38.2464L101.544 37.1892ZM99.3173 48.1603C99.1042 46.3334 98.8912 44.0692 98.6782 41.3679C98.2521 44.587 97.9858 46.9345 97.8792 48.4103L99.3173 48.1603Z" fill="#2B3B94"/>
<path d="M112 35.3718V38.6659L109.503 39.0999V52.2663L105.299 52.9971V39.8307L102.813 40.2629V36.9688L112 35.3718Z" fill="#2B3B94"/>
<path fill-rule="evenodd" clip-rule="evenodd" d="M43.3929 14.7392V42.1616L36.4923 43.467L36.4729 24.9585L33.7314 43.9899L28.9005 44.9038L26.0057 27.3548L25.987 45.4551L19.0861 46.7609V19.3384L29.2777 17.4096C29.5654 19.0137 29.8785 20.9075 30.2171 23.074L31.3353 29.8244L33.1307 16.6806L43.3929 14.7392ZM65.3745 10.5791L60.8694 23.8139L65.7965 37.9224L57.6685 39.4603L54.4672 28.3134V40.0659L46.569 41.5604V14.1378L54.4672 12.6432V23.298L58.0136 11.9724L65.3745 10.5791Z" fill="#2B3B94"/>
<defs>
<linearGradient id="paint0_linear_103_72" x1="84.1983" y1="10.0695" x2="83.4995" y2="27.8672" gradientUnits="userSpaceOnUse">
<stop stop-color="#ACD91A"/>
<stop offset="1" stop-color="#D6E949"/>
</linearGradient>
<linearGradient id="paint1_linear_103_72" x1="91.4365" y1="4.48368" x2="86.2501" y2="7.0114" gradientUnits="userSpaceOnUse">
<stop stop-color="#356CAE"/>
<stop offset="1" stop-color="#75D0C1"/>
</linearGradient>
<linearGradient id="paint2_linear_103_72" x1="103.449" y1="3.08776" x2="97.0777" y2="4.71467" gradientUnits="userSpaceOnUse">
<stop stop-color="#E7EC15"/>
<stop offset="1" stop-color="#F1F253"/>
</linearGradient>
<linearGradient id="paint3_linear_103_72" x1="102.044" y1="15.1648" x2="111.178" y2="15.1648" gradientUnits="userSpaceOnUse">
<stop stop-color="#3A77C5"/>
<stop offset="1" stop-color="#2A419E"/>
</linearGradient>
<linearGradient id="paint4_linear_103_72" x1="94.1905" y1="28.5154" x2="106.713" y2="28.5154" gradientUnits="userSpaceOnUse">
<stop stop-color="#47BB3A"/>
<stop offset="1" stop-color="#90D685"/>
</linearGradient>
<linearGradient id="paint5_linear_103_72" x1="86.6155" y1="30.39" x2="91.6164" y2="30.39" gradientUnits="userSpaceOnUse">
<stop stop-color="#D62C24"/>
<stop offset="1" stop-color="#F36379"/>
</linearGradient>
<linearGradient id="paint6_linear_103_72" x1="83.7215" y1="6.4984" x2="71.9346" y2="9.46287" gradientUnits="userSpaceOnUse">
<stop stop-color="#F25B19"/>
<stop offset="1" stop-color="#EBE119"/>
</linearGradient>
<linearGradient id="paint7_linear_103_72" x1="73.3566" y1="32.49" x2="81.9501" y2="32.49" gradientUnits="userSpaceOnUse">
<stop stop-color="#4D8CD1"/>
<stop offset="1" stop-color="#94DCF3"/>
</linearGradient>
<linearGradient id="paint8_linear_103_72" x1="99.9444" y1="12.4666" x2="90.4778" y2="21.36" gradientUnits="userSpaceOnUse">
<stop stop-color="#A5138C"/>
<stop offset="1" stop-color="#B25AB4"/>
</linearGradient>
</defs>
</svg>
